<mxfile host="Electron" modified="2023-11-20T15:07:50.020Z" agent="Mozilla/5.0 (X11; Linux x86_64) AppleWebKit/537.36 (KHTML, like Gecko) draw.io/22.1.2 Chrome/114.0.5735.289 Electron/25.9.4 Safari/537.36" etag="HAKmJJ9R34g5dE0OzCrB" version="22.1.2" type="device">
  <diagram name="Page-1" id="Xms4vQwvj5x-DTssd_DD">
    <mxGraphModel dx="1069" dy="774" grid="1" gridSize="10" guides="1" tooltips="1" connect="1" arrows="1" fold="1" page="1" pageScale="1" pageWidth="827" pageHeight="1169" math="0" shadow="0">
      <root>
        <mxCell id="0" />
        <mxCell id="1" parent="0" />
        <mxCell id="XgoD8Mu38-TQksBzbD_L-8" value="" style="rounded=0;whiteSpace=wrap;html=1;fillColor=#99CCFF;" vertex="1" parent="1">
          <mxGeometry x="270" y="79" width="390" height="480" as="geometry" />
        </mxCell>
        <mxCell id="XgoD8Mu38-TQksBzbD_L-7" value="" style="rounded=0;whiteSpace=wrap;html=1;fillColor=#99CCFF;" vertex="1" parent="1">
          <mxGeometry x="66" y="79" width="170" height="480" as="geometry" />
        </mxCell>
        <mxCell id="XgoD8Mu38-TQksBzbD_L-1" value="&lt;b&gt;Kernel 2&lt;/b&gt;" style="rounded=0;whiteSpace=wrap;html=1;labelBackgroundColor=#66FF66;fillColor=#66FF66;" vertex="1" parent="1">
          <mxGeometry x="126" y="380" width="80" height="40" as="geometry" />
        </mxCell>
        <mxCell id="XgoD8Mu38-TQksBzbD_L-2" value="&lt;b&gt;&lt;font style=&quot;font-size: 14px;&quot;&gt;Host&lt;/font&gt;&lt;/b&gt;" style="text;html=1;strokeColor=none;fillColor=none;align=center;verticalAlign=middle;whiteSpace=wrap;rounded=0;" vertex="1" parent="1">
          <mxGeometry x="66" y="89" width="60" height="30" as="geometry" />
        </mxCell>
        <mxCell id="XgoD8Mu38-TQksBzbD_L-3" value="&lt;font size=&quot;1&quot; color=&quot;#ff0000&quot;&gt;&lt;b style=&quot;font-size: 14px;&quot;&gt;(CPU)&lt;/b&gt;&lt;/font&gt;" style="text;html=1;strokeColor=none;fillColor=none;align=center;verticalAlign=middle;whiteSpace=wrap;rounded=0;" vertex="1" parent="1">
          <mxGeometry x="66" y="119" width="60" height="30" as="geometry" />
        </mxCell>
        <mxCell id="XgoD8Mu38-TQksBzbD_L-4" value="&lt;b&gt;Kernel 1&lt;/b&gt;" style="rounded=0;whiteSpace=wrap;html=1;labelBackgroundColor=#66FF66;fillColor=#66FF66;" vertex="1" parent="1">
          <mxGeometry x="116" y="179" width="80" height="40" as="geometry" />
        </mxCell>
        <mxCell id="XgoD8Mu38-TQksBzbD_L-6" value="" style="endArrow=classic;html=1;rounded=0;exitX=0.25;exitY=1;exitDx=0;exitDy=0;strokeWidth=3;" edge="1" parent="1">
          <mxGeometry width="50" height="50" relative="1" as="geometry">
            <mxPoint x="89" y="149" as="sourcePoint" />
            <mxPoint x="90" y="500" as="targetPoint" />
          </mxGeometry>
        </mxCell>
        <mxCell id="XgoD8Mu38-TQksBzbD_L-9" value="&lt;b&gt;&lt;font style=&quot;font-size: 14px;&quot;&gt;Device&lt;/font&gt;&lt;/b&gt;" style="text;html=1;strokeColor=none;fillColor=none;align=center;verticalAlign=middle;whiteSpace=wrap;rounded=0;" vertex="1" parent="1">
          <mxGeometry x="350" y="89" width="60" height="30" as="geometry" />
        </mxCell>
        <mxCell id="XgoD8Mu38-TQksBzbD_L-23" value="" style="rounded=0;whiteSpace=wrap;html=1;labelBackgroundColor=#66FF66;fillColor=#66FF66;" vertex="1" parent="1">
          <mxGeometry x="334.46" y="330" width="239.99999999999997" height="200" as="geometry" />
        </mxCell>
        <mxCell id="XgoD8Mu38-TQksBzbD_L-10" value="&lt;font size=&quot;1&quot; color=&quot;#ff0000&quot;&gt;&lt;b style=&quot;font-size: 14px;&quot;&gt;(GPU)&lt;/b&gt;&lt;/font&gt;" style="text;html=1;strokeColor=none;fillColor=none;align=center;verticalAlign=middle;whiteSpace=wrap;rounded=0;" vertex="1" parent="1">
          <mxGeometry x="400" y="89" width="60" height="30" as="geometry" />
        </mxCell>
        <mxCell id="XgoD8Mu38-TQksBzbD_L-87" value="" style="group" vertex="1" connectable="0" parent="1">
          <mxGeometry x="300" y="140" width="294" height="160" as="geometry" />
        </mxCell>
        <mxCell id="XgoD8Mu38-TQksBzbD_L-11" value="" style="rounded=0;whiteSpace=wrap;html=1;labelBackgroundColor=#66FF66;fillColor=#66FF66;" vertex="1" parent="XgoD8Mu38-TQksBzbD_L-87">
          <mxGeometry width="294" height="160" as="geometry" />
        </mxCell>
        <mxCell id="XgoD8Mu38-TQksBzbD_L-12" value="&lt;b&gt;Block&lt;br&gt;(0,0)&lt;/b&gt;" style="rounded=0;whiteSpace=wrap;html=1;fillColor=#FFCC99;" vertex="1" parent="XgoD8Mu38-TQksBzbD_L-87">
          <mxGeometry x="14" y="40" width="80" height="40" as="geometry" />
        </mxCell>
        <mxCell id="XgoD8Mu38-TQksBzbD_L-15" value="&lt;b&gt;Block&lt;br&gt;(0,1)&lt;/b&gt;" style="rounded=0;whiteSpace=wrap;html=1;fillColor=#FFCC99;" vertex="1" parent="XgoD8Mu38-TQksBzbD_L-87">
          <mxGeometry x="14" y="100" width="80" height="40" as="geometry" />
        </mxCell>
        <mxCell id="XgoD8Mu38-TQksBzbD_L-16" value="&lt;b&gt;Block&lt;br&gt;(1,0)&lt;/b&gt;" style="rounded=0;whiteSpace=wrap;html=1;fillColor=#FFCC99;" vertex="1" parent="XgoD8Mu38-TQksBzbD_L-87">
          <mxGeometry x="108" y="40" width="80" height="40" as="geometry" />
        </mxCell>
        <mxCell id="XgoD8Mu38-TQksBzbD_L-17" value="&lt;b&gt;Block&lt;br&gt;(1,1)&lt;/b&gt;" style="rounded=0;whiteSpace=wrap;html=1;fillColor=#FFCC99;" vertex="1" parent="XgoD8Mu38-TQksBzbD_L-87">
          <mxGeometry x="108" y="100" width="80" height="40" as="geometry" />
        </mxCell>
        <mxCell id="XgoD8Mu38-TQksBzbD_L-18" value="&lt;b&gt;Block&lt;br&gt;(2,1)&lt;/b&gt;" style="rounded=0;whiteSpace=wrap;html=1;fillColor=#FFCC99;" vertex="1" parent="XgoD8Mu38-TQksBzbD_L-87">
          <mxGeometry x="198" y="100" width="80" height="40" as="geometry" />
        </mxCell>
        <mxCell id="XgoD8Mu38-TQksBzbD_L-19" value="&lt;b&gt;Block&lt;br&gt;(2,0)&lt;/b&gt;" style="rounded=0;whiteSpace=wrap;html=1;fillColor=#FFCC99;" vertex="1" parent="XgoD8Mu38-TQksBzbD_L-87">
          <mxGeometry x="198" y="40" width="80" height="40" as="geometry" />
        </mxCell>
        <mxCell id="XgoD8Mu38-TQksBzbD_L-20" value="&lt;b&gt;Grid 1&lt;/b&gt;" style="text;html=1;strokeColor=none;fillColor=none;align=center;verticalAlign=middle;whiteSpace=wrap;rounded=0;" vertex="1" parent="XgoD8Mu38-TQksBzbD_L-87">
          <mxGeometry x="4" width="60" height="30" as="geometry" />
        </mxCell>
        <mxCell id="XgoD8Mu38-TQksBzbD_L-88" value="" style="endArrow=none;dashed=1;html=1;rounded=0;entryX=0;entryY=0;entryDx=0;entryDy=0;exitX=0;exitY=0;exitDx=0;exitDy=0;" edge="1" parent="1" source="XgoD8Mu38-TQksBzbD_L-55" target="XgoD8Mu38-TQksBzbD_L-17">
          <mxGeometry width="50" height="50" relative="1" as="geometry">
            <mxPoint x="300" y="450" as="sourcePoint" />
            <mxPoint x="350" y="400" as="targetPoint" />
          </mxGeometry>
        </mxCell>
        <mxCell id="XgoD8Mu38-TQksBzbD_L-91" value="" style="group" vertex="1" connectable="0" parent="1">
          <mxGeometry x="343.2436585365854" y="330" width="266.7563414634146" height="370" as="geometry" />
        </mxCell>
        <mxCell id="XgoD8Mu38-TQksBzbD_L-24" value="" style="rounded=0;whiteSpace=wrap;html=1;fillColor=#FFCC99;" vertex="1" parent="XgoD8Mu38-TQksBzbD_L-91">
          <mxGeometry y="40" width="46.829268292682926" height="40" as="geometry" />
        </mxCell>
        <mxCell id="XgoD8Mu38-TQksBzbD_L-30" value="&lt;b&gt;Grid 2&lt;/b&gt;" style="text;html=1;strokeColor=none;fillColor=none;align=center;verticalAlign=middle;whiteSpace=wrap;rounded=0;" vertex="1" parent="XgoD8Mu38-TQksBzbD_L-91">
          <mxGeometry x="49.0963414634146" width="57.66" height="30" as="geometry" />
        </mxCell>
        <mxCell id="XgoD8Mu38-TQksBzbD_L-39" value="" style="rounded=0;whiteSpace=wrap;html=1;fillColor=#FFCC99;" vertex="1" parent="XgoD8Mu38-TQksBzbD_L-91">
          <mxGeometry x="56.19512195121945" y="40" width="46.829268292682926" height="40" as="geometry" />
        </mxCell>
        <mxCell id="XgoD8Mu38-TQksBzbD_L-43" value="" style="rounded=0;whiteSpace=wrap;html=1;fillColor=#FFCC99;" vertex="1" parent="XgoD8Mu38-TQksBzbD_L-91">
          <mxGeometry x="117.07317073170725" y="40" width="46.829268292682926" height="40" as="geometry" />
        </mxCell>
        <mxCell id="XgoD8Mu38-TQksBzbD_L-44" value="" style="rounded=0;whiteSpace=wrap;html=1;fillColor=#FFCC99;" vertex="1" parent="XgoD8Mu38-TQksBzbD_L-91">
          <mxGeometry x="175.609756097561" y="40" width="46.829268292682926" height="40" as="geometry" />
        </mxCell>
        <mxCell id="XgoD8Mu38-TQksBzbD_L-45" value="" style="rounded=0;whiteSpace=wrap;html=1;fillColor=#FFCC99;" vertex="1" parent="XgoD8Mu38-TQksBzbD_L-91">
          <mxGeometry y="90" width="46.829268292682926" height="40" as="geometry" />
        </mxCell>
        <mxCell id="XgoD8Mu38-TQksBzbD_L-46" value="" style="rounded=0;whiteSpace=wrap;html=1;fillColor=#FFCC99;" vertex="1" parent="XgoD8Mu38-TQksBzbD_L-91">
          <mxGeometry x="56.19512195121945" y="90" width="46.829268292682926" height="40" as="geometry" />
        </mxCell>
        <mxCell id="XgoD8Mu38-TQksBzbD_L-47" value="" style="rounded=0;whiteSpace=wrap;html=1;fillColor=#FFCC99;" vertex="1" parent="XgoD8Mu38-TQksBzbD_L-91">
          <mxGeometry x="117.07317073170725" y="90" width="46.829268292682926" height="40" as="geometry" />
        </mxCell>
        <mxCell id="XgoD8Mu38-TQksBzbD_L-48" value="" style="rounded=0;whiteSpace=wrap;html=1;fillColor=#FFCC99;" vertex="1" parent="XgoD8Mu38-TQksBzbD_L-91">
          <mxGeometry x="175.609756097561" y="90" width="46.829268292682926" height="40" as="geometry" />
        </mxCell>
        <mxCell id="XgoD8Mu38-TQksBzbD_L-49" value="" style="rounded=0;whiteSpace=wrap;html=1;fillColor=#FFCC99;" vertex="1" parent="XgoD8Mu38-TQksBzbD_L-91">
          <mxGeometry y="140" width="46.829268292682926" height="40" as="geometry" />
        </mxCell>
        <mxCell id="XgoD8Mu38-TQksBzbD_L-50" value="" style="rounded=0;whiteSpace=wrap;html=1;fillColor=#FFCC99;" vertex="1" parent="XgoD8Mu38-TQksBzbD_L-91">
          <mxGeometry x="56.19512195121945" y="140" width="46.829268292682926" height="40" as="geometry" />
        </mxCell>
        <mxCell id="XgoD8Mu38-TQksBzbD_L-51" value="" style="rounded=0;whiteSpace=wrap;html=1;fillColor=#FFCC99;" vertex="1" parent="XgoD8Mu38-TQksBzbD_L-91">
          <mxGeometry x="117.07317073170725" y="140" width="46.829268292682926" height="40" as="geometry" />
        </mxCell>
        <mxCell id="XgoD8Mu38-TQksBzbD_L-52" value="" style="rounded=0;whiteSpace=wrap;html=1;fillColor=#FFCC99;" vertex="1" parent="XgoD8Mu38-TQksBzbD_L-91">
          <mxGeometry x="175.609756097561" y="140" width="46.829268292682926" height="40" as="geometry" />
        </mxCell>
        <mxCell id="XgoD8Mu38-TQksBzbD_L-89" value="" style="endArrow=none;dashed=1;html=1;rounded=0;entryX=1;entryY=0;entryDx=0;entryDy=0;exitX=1;exitY=0;exitDx=0;exitDy=0;" edge="1" parent="1" source="XgoD8Mu38-TQksBzbD_L-55" target="XgoD8Mu38-TQksBzbD_L-17">
          <mxGeometry width="50" height="50" relative="1" as="geometry">
            <mxPoint x="120" y="460" as="sourcePoint" />
            <mxPoint x="418" y="250" as="targetPoint" />
          </mxGeometry>
        </mxCell>
        <mxCell id="XgoD8Mu38-TQksBzbD_L-92" value="" style="endArrow=classic;html=1;rounded=0;entryX=0.005;entryY=0.348;entryDx=0;entryDy=0;entryPerimeter=0;strokeWidth=2;" edge="1" parent="1" target="XgoD8Mu38-TQksBzbD_L-23">
          <mxGeometry width="50" height="50" relative="1" as="geometry">
            <mxPoint x="206" y="400" as="sourcePoint" />
            <mxPoint x="256" y="350" as="targetPoint" />
          </mxGeometry>
        </mxCell>
        <mxCell id="XgoD8Mu38-TQksBzbD_L-93" style="edgeStyle=orthogonalEdgeStyle;rounded=0;orthogonalLoop=1;jettySize=auto;html=1;exitX=1;exitY=0.5;exitDx=0;exitDy=0;entryX=0.003;entryY=0.363;entryDx=0;entryDy=0;entryPerimeter=0;strokeWidth=3;" edge="1" parent="1" source="XgoD8Mu38-TQksBzbD_L-4" target="XgoD8Mu38-TQksBzbD_L-11">
          <mxGeometry relative="1" as="geometry" />
        </mxCell>
        <mxCell id="XgoD8Mu38-TQksBzbD_L-55" value="" style="rounded=0;whiteSpace=wrap;html=1;fillColor=#FFCC99;" vertex="1" parent="1">
          <mxGeometry x="140" y="460" width="400" height="270" as="geometry" />
        </mxCell>
        <mxCell id="XgoD8Mu38-TQksBzbD_L-170" value="" style="group" vertex="1" connectable="0" parent="1">
          <mxGeometry x="480.625" y="645.76" width="342.375" height="374.24" as="geometry" />
        </mxCell>
        <mxCell id="XgoD8Mu38-TQksBzbD_L-84" value="" style="group" vertex="1" connectable="0" parent="XgoD8Mu38-TQksBzbD_L-170">
          <mxGeometry x="-58.84500000000003" y="189.24" width="300" height="180" as="geometry" />
        </mxCell>
        <mxCell id="XgoD8Mu38-TQksBzbD_L-171" value="" style="group" vertex="1" connectable="0" parent="XgoD8Mu38-TQksBzbD_L-84">
          <mxGeometry x="-261.78" y="-246" width="300" height="120" as="geometry" />
        </mxCell>
        <mxCell id="XgoD8Mu38-TQksBzbD_L-59" value="&lt;span style=&quot;&quot;&gt;&lt;b&gt;Thread&lt;br&gt;(0,0,0)&lt;/b&gt;&lt;/span&gt;" style="whiteSpace=wrap;html=1;aspect=fixed;labelBackgroundColor=#FF8000;fillColor=#FF8000;" vertex="1" parent="XgoD8Mu38-TQksBzbD_L-171">
          <mxGeometry width="60" height="60" as="geometry" />
        </mxCell>
        <mxCell id="XgoD8Mu38-TQksBzbD_L-60" value="&lt;span style=&quot;&quot;&gt;&lt;b&gt;Thread&lt;br&gt;(1,0,0)&lt;/b&gt;&lt;/span&gt;" style="whiteSpace=wrap;html=1;aspect=fixed;labelBackgroundColor=#FF8000;fillColor=#FF8000;" vertex="1" parent="XgoD8Mu38-TQksBzbD_L-171">
          <mxGeometry x="60" width="60" height="60" as="geometry" />
        </mxCell>
        <mxCell id="XgoD8Mu38-TQksBzbD_L-61" value="&lt;span style=&quot;&quot;&gt;&lt;b&gt;Thread&lt;br&gt;(2,0,0)&lt;/b&gt;&lt;/span&gt;" style="whiteSpace=wrap;html=1;aspect=fixed;labelBackgroundColor=#FF8000;fillColor=#FF8000;" vertex="1" parent="XgoD8Mu38-TQksBzbD_L-171">
          <mxGeometry x="120" width="60" height="60" as="geometry" />
        </mxCell>
        <mxCell id="XgoD8Mu38-TQksBzbD_L-62" value="&lt;span style=&quot;&quot;&gt;&lt;b&gt;Thread&lt;br&gt;(3,0,0)&lt;/b&gt;&lt;/span&gt;" style="whiteSpace=wrap;html=1;aspect=fixed;labelBackgroundColor=#FF8000;fillColor=#FF8000;" vertex="1" parent="XgoD8Mu38-TQksBzbD_L-171">
          <mxGeometry x="180" width="60" height="60" as="geometry" />
        </mxCell>
        <mxCell id="XgoD8Mu38-TQksBzbD_L-63" value="&lt;span style=&quot;&quot;&gt;&lt;b&gt;Thread&lt;br&gt;(4,0,0)&lt;/b&gt;&lt;/span&gt;" style="whiteSpace=wrap;html=1;aspect=fixed;labelBackgroundColor=#FF8000;fillColor=#FF8000;" vertex="1" parent="XgoD8Mu38-TQksBzbD_L-171">
          <mxGeometry x="240" width="60" height="60" as="geometry" />
        </mxCell>
        <mxCell id="XgoD8Mu38-TQksBzbD_L-74" value="&lt;span style=&quot;&quot;&gt;&lt;b&gt;Thread&lt;br&gt;(0,1,0)&lt;/b&gt;&lt;/span&gt;" style="whiteSpace=wrap;html=1;aspect=fixed;labelBackgroundColor=#FF8000;fillColor=#FF8000;" vertex="1" parent="XgoD8Mu38-TQksBzbD_L-171">
          <mxGeometry y="60" width="60" height="60" as="geometry" />
        </mxCell>
        <mxCell id="XgoD8Mu38-TQksBzbD_L-75" value="&lt;span style=&quot;&quot;&gt;&lt;b&gt;Thread&lt;br&gt;(1,1,0)&lt;/b&gt;&lt;/span&gt;" style="whiteSpace=wrap;html=1;aspect=fixed;labelBackgroundColor=#FF8000;fillColor=#FF8000;" vertex="1" parent="XgoD8Mu38-TQksBzbD_L-171">
          <mxGeometry x="60" y="60" width="60" height="60" as="geometry" />
        </mxCell>
        <mxCell id="XgoD8Mu38-TQksBzbD_L-76" value="&lt;span style=&quot;&quot;&gt;&lt;b&gt;Thread&lt;br&gt;(2,1,0)&lt;/b&gt;&lt;/span&gt;" style="whiteSpace=wrap;html=1;aspect=fixed;labelBackgroundColor=#FF8000;fillColor=#FF8000;" vertex="1" parent="XgoD8Mu38-TQksBzbD_L-171">
          <mxGeometry x="120" y="60" width="60" height="60" as="geometry" />
        </mxCell>
        <mxCell id="XgoD8Mu38-TQksBzbD_L-77" value="&lt;span style=&quot;&quot;&gt;&lt;b&gt;Thread&lt;br&gt;(3,1,0)&lt;/b&gt;&lt;/span&gt;" style="whiteSpace=wrap;html=1;aspect=fixed;labelBackgroundColor=#FF8000;fillColor=#FF8000;" vertex="1" parent="XgoD8Mu38-TQksBzbD_L-171">
          <mxGeometry x="180" y="60" width="60" height="60" as="geometry" />
        </mxCell>
        <mxCell id="XgoD8Mu38-TQksBzbD_L-78" value="&lt;span style=&quot;&quot;&gt;&lt;b&gt;Thread&lt;br&gt;(4,1,0)&lt;/b&gt;&lt;/span&gt;" style="whiteSpace=wrap;html=1;aspect=fixed;labelBackgroundColor=#FF8000;fillColor=#FF8000;" vertex="1" parent="XgoD8Mu38-TQksBzbD_L-171">
          <mxGeometry x="240" y="60" width="60" height="60" as="geometry" />
        </mxCell>
        <mxCell id="XgoD8Mu38-TQksBzbD_L-97" value="" style="shape=parallelogram;perimeter=parallelogramPerimeter;whiteSpace=wrap;html=1;fixedSize=1;rotation=90;direction=south;fillColor=#FF8000;" vertex="1" parent="XgoD8Mu38-TQksBzbD_L-170">
          <mxGeometry x="-298.405" y="-116" width="38.78" height="79.53" as="geometry" />
        </mxCell>
        <mxCell id="XgoD8Mu38-TQksBzbD_L-108" value="" style="shape=parallelogram;perimeter=parallelogramPerimeter;whiteSpace=wrap;html=1;fixedSize=1;rotation=90;direction=south;fillColor=#FF8000;" vertex="1" parent="XgoD8Mu38-TQksBzbD_L-170">
          <mxGeometry x="-239.40499999999997" y="-116" width="38.78" height="79.53" as="geometry" />
        </mxCell>
        <mxCell id="XgoD8Mu38-TQksBzbD_L-109" value="" style="shape=parallelogram;perimeter=parallelogramPerimeter;whiteSpace=wrap;html=1;fixedSize=1;rotation=90;direction=south;fillColor=#FF8000;" vertex="1" parent="XgoD8Mu38-TQksBzbD_L-170">
          <mxGeometry x="-179.68499999999995" y="-116.71000000000004" width="38.78" height="80.96" as="geometry" />
        </mxCell>
        <mxCell id="XgoD8Mu38-TQksBzbD_L-111" value="" style="shape=parallelogram;perimeter=parallelogramPerimeter;whiteSpace=wrap;html=1;fixedSize=1;rotation=90;direction=south;fillColor=#FF8000;" vertex="1" parent="XgoD8Mu38-TQksBzbD_L-170">
          <mxGeometry x="-60.70500000000004" y="-116.75999999999999" width="38.96" height="81.23" as="geometry" />
        </mxCell>
        <mxCell id="XgoD8Mu38-TQksBzbD_L-116" value="" style="shape=parallelogram;perimeter=parallelogramPerimeter;whiteSpace=wrap;html=1;fixedSize=1;rotation=90;direction=south;fillColor=#FF8000;" vertex="1" parent="XgoD8Mu38-TQksBzbD_L-170">
          <mxGeometry x="-118.40499999999997" y="-117" width="38.78" height="80.96" as="geometry" />
        </mxCell>
        <mxCell id="XgoD8Mu38-TQksBzbD_L-117" value="" style="shape=parallelogram;perimeter=parallelogramPerimeter;whiteSpace=wrap;html=1;fixedSize=1;rotation=90;direction=south;fillColor=#FF8000;" vertex="1" parent="XgoD8Mu38-TQksBzbD_L-170">
          <mxGeometry x="-278.405" y="-154.76" width="38.78" height="79.53" as="geometry" />
        </mxCell>
        <mxCell id="XgoD8Mu38-TQksBzbD_L-118" value="" style="shape=parallelogram;perimeter=parallelogramPerimeter;whiteSpace=wrap;html=1;fixedSize=1;rotation=90;direction=south;fillColor=#FF8000;" vertex="1" parent="XgoD8Mu38-TQksBzbD_L-170">
          <mxGeometry x="-219.40499999999997" y="-154.76" width="38.78" height="79.53" as="geometry" />
        </mxCell>
        <mxCell id="XgoD8Mu38-TQksBzbD_L-119" value="" style="shape=parallelogram;perimeter=parallelogramPerimeter;whiteSpace=wrap;html=1;fixedSize=1;rotation=90;direction=south;fillColor=#FF8000;" vertex="1" parent="XgoD8Mu38-TQksBzbD_L-170">
          <mxGeometry x="-159.68499999999995" y="-155.47000000000003" width="38.78" height="80.96" as="geometry" />
        </mxCell>
        <mxCell id="XgoD8Mu38-TQksBzbD_L-159" value="" style="endArrow=none;html=1;rounded=0;" edge="1" parent="XgoD8Mu38-TQksBzbD_L-170">
          <mxGeometry width="50" height="50" relative="1" as="geometry">
            <mxPoint x="23.595000000000027" y="-6.759999999999991" as="sourcePoint" />
            <mxPoint x="19.595000000000027" y="-134.51999999999998" as="targetPoint" />
          </mxGeometry>
        </mxCell>
        <mxCell id="XgoD8Mu38-TQksBzbD_L-162" value="" style="endArrow=none;html=1;rounded=0;" edge="1" parent="XgoD8Mu38-TQksBzbD_L-170">
          <mxGeometry width="50" height="50" relative="1" as="geometry">
            <mxPoint x="0.25499999999999545" y="32" as="sourcePoint" />
            <mxPoint x="0.25499999999999545" y="-95.75999999999999" as="targetPoint" />
          </mxGeometry>
        </mxCell>
        <mxCell id="XgoD8Mu38-TQksBzbD_L-163" value="" style="shape=parallelogram;perimeter=parallelogramPerimeter;whiteSpace=wrap;html=1;fixedSize=1;rotation=90;direction=south;fillColor=#FF8000;" vertex="1" parent="XgoD8Mu38-TQksBzbD_L-170">
          <mxGeometry x="-98.48500000000001" y="-155.76" width="38.78" height="80.96" as="geometry" />
        </mxCell>
        <mxCell id="XgoD8Mu38-TQksBzbD_L-164" value="" style="shape=parallelogram;perimeter=parallelogramPerimeter;whiteSpace=wrap;html=1;fixedSize=1;rotation=90;direction=south;fillColor=#FF8000;" vertex="1" parent="XgoD8Mu38-TQksBzbD_L-170">
          <mxGeometry x="-37.40499999999997" y="-155.76" width="38.78" height="80.96" as="geometry" />
        </mxCell>
        <mxCell id="XgoD8Mu38-TQksBzbD_L-165" value="&lt;b&gt;(0,0,1)&lt;/b&gt;" style="text;html=1;strokeColor=none;fillColor=none;align=center;verticalAlign=middle;whiteSpace=wrap;rounded=0;" vertex="1" parent="XgoD8Mu38-TQksBzbD_L-170">
          <mxGeometry x="-289.015" y="-136.76" width="60" height="30" as="geometry" />
        </mxCell>
        <mxCell id="XgoD8Mu38-TQksBzbD_L-166" value="&lt;b&gt;(1,0,1)&lt;/b&gt;" style="text;html=1;strokeColor=none;fillColor=none;align=center;verticalAlign=middle;whiteSpace=wrap;rounded=0;" vertex="1" parent="XgoD8Mu38-TQksBzbD_L-170">
          <mxGeometry x="-232.015" y="-137" width="60" height="30" as="geometry" />
        </mxCell>
        <mxCell id="XgoD8Mu38-TQksBzbD_L-167" value="&lt;b&gt;(2,0,1)&lt;/b&gt;" style="text;html=1;strokeColor=none;fillColor=none;align=center;verticalAlign=middle;whiteSpace=wrap;rounded=0;" vertex="1" parent="XgoD8Mu38-TQksBzbD_L-170">
          <mxGeometry x="-170.29499999999996" y="-136.76" width="60" height="30" as="geometry" />
        </mxCell>
        <mxCell id="XgoD8Mu38-TQksBzbD_L-168" value="&lt;b&gt;(4,0,1)&lt;/b&gt;" style="text;html=1;strokeColor=none;fillColor=none;align=center;verticalAlign=middle;whiteSpace=wrap;rounded=0;" vertex="1" parent="XgoD8Mu38-TQksBzbD_L-170">
          <mxGeometry x="-46.40499999999997" y="-137" width="60" height="30" as="geometry" />
        </mxCell>
        <mxCell id="XgoD8Mu38-TQksBzbD_L-169" value="&lt;b&gt;(3,0,1)&lt;/b&gt;" style="text;html=1;strokeColor=none;fillColor=none;align=center;verticalAlign=middle;whiteSpace=wrap;rounded=0;" vertex="1" parent="XgoD8Mu38-TQksBzbD_L-170">
          <mxGeometry x="-109.09500000000003" y="-137" width="60" height="30" as="geometry" />
        </mxCell>
        <mxCell id="XgoD8Mu38-TQksBzbD_L-161" value="" style="endArrow=none;html=1;rounded=0;exitX=0.214;exitY=-0.007;exitDx=0;exitDy=0;exitPerimeter=0;" edge="1" parent="XgoD8Mu38-TQksBzbD_L-170">
          <mxGeometry width="50" height="50" relative="1" as="geometry">
            <mxPoint x="-19.404999999999973" y="63.24000000000001" as="sourcePoint" />
            <mxPoint x="23.595000000000027" y="-6.759999999999991" as="targetPoint" />
          </mxGeometry>
        </mxCell>
        <mxCell id="XgoD8Mu38-TQksBzbD_L-160" value="" style="endArrow=none;html=1;rounded=0;exitX=0.214;exitY=-0.007;exitDx=0;exitDy=0;exitPerimeter=0;" edge="1" parent="XgoD8Mu38-TQksBzbD_L-170">
          <mxGeometry width="50" height="50" relative="1" as="geometry">
            <mxPoint x="-19.404999999999973" y="4.769999999999982" as="sourcePoint" />
            <mxPoint x="23.595000000000027" y="-56.75999999999999" as="targetPoint" />
          </mxGeometry>
        </mxCell>
        <mxCell id="4Jdw_E2mjJ4sOh1jZiDW-1" value="&lt;b&gt;Block (1,1)&lt;/b&gt;" style="text;html=1;strokeColor=none;fillColor=none;align=center;verticalAlign=middle;whiteSpace=wrap;rounded=0;" vertex="1" parent="1">
          <mxGeometry x="206" y="470" width="74" height="30" as="geometry" />
        </mxCell>
      </root>
    </mxGraphModel>
  </diagram>
</mxfile>
